<svg xmlns="http://www.w3.org/2000/svg" viewBox="0 0 120 120" role="img" aria-label="green cat note">
  <defs>
    <radialGradient id="fur" cx="42%" cy="34%" r="72%">
      <stop offset="0" stop-color="#dbffb7"/>
      <stop offset="0.52" stop-color="#8bd968"/>
      <stop offset="1" stop-color="#61aa42"/>
    </radialGradient>
    <filter id="soft" x="-20%" y="-20%" width="140%" height="140%">
      <feDropShadow dx="0" dy="5" stdDeviation="4" flood-color="#8be45f" flood-opacity="0.4"/>
    </filter>
  </defs>
  <circle cx="60" cy="60" r="55" fill="#d9f8ca"/>
  <circle cx="60" cy="61" r="46" fill="url(#fur)" filter="url(#soft)"/>
  <path d="M31 36 25 14 46 29Z" fill="#8bd968"/>
  <path d="M89 36 95 14 74 29Z" fill="#8bd968"/>
  <path d="M34 36c9-13 43-16 55 0" fill="none" stroke="#315b2a" stroke-width="3" stroke-linecap="round"/>
  <path d="M29 25c13-8 39-8 63 0" fill="none" stroke="#e8fff0" stroke-width="10" stroke-linecap="round"/>
  <path d="M32 24c12 9 44 10 58 0" fill="none" stroke="#ff6e55" stroke-width="4" stroke-dasharray="3 4" stroke-linecap="round"/>
  <circle cx="43" cy="60" r="5" fill="#10210f"/>
  <circle cx="77" cy="60" r="5" fill="#10210f"/>
  <path d="M55 74c3 3 7 3 10 0" fill="none" stroke="#24391f" stroke-width="4" stroke-linecap="round"/>
</svg>
